FFmpeg version SVN-r25716, Copyright (c) 2000-2010 the FFmpeg developers  built on Nov 10 2010 12:23:18 with gcc 4.1.2 20080704 (Red Hat 4.1.2-48)  configuration: --enable-libmp3lame --enable-shared --disable-mmx --arch=x86_64  libavutil     50.33. 0 / 50.33. 0  libavcore      0.12. 1 /  0.12. 1  libavcodec    52.94. 4 / 52.94. 4  libavformat   52.84. 0 / 52.84. 0  libavdevice   52. 2. 2 / 52. 2. 2  libavfilter    1.59. 0 /  1.59. 0  libswscale     0.12. 0 /  0.12. 0Input #0, avi, from '/RAID10/data/converted_video_files/47652.avi':  Duration: 00:00:15.00, start: 0.000000, bitrate: 187507 kb/s    Stream #0.0: Video: msvideo1, rgb555le, 1024x1024, 20 tbr, 20 tbn, 20 tbc[buffer @ 0x8de0050] w:1024 h:1024 pixfmt:rgb555le[ffsink @ 0x8de02c0] auto-inserting filter 'auto-inserted scaler 0' between the filter 'src' and the filter 'out'[scale @ 0x8df2250] w:1024 h:1024 fmt:rgb555le -> w:1024 h:1024 fmt:yuv420p flags:0x4Output #0, flv, to '/RAID10/data/converted_video_files/47652.flv':  Metadata:    encoder         : Lavf52.84.0    Stream #0.0: Video: flv, yuv420p, 1024x1024, q=2-31, 600 kb/s, 1k tbn, 24 tbcStream mapping:  Stream #0.0 -> #0.0Press [q] to stop encodingframe=    9 fps=  0 q=15.2 size=     462kB time=0.46 bitrate=8251.7kbits/s    frame=   19 fps= 16 q=31.0 size=     497kB time=0.96 bitrate=4247.3kbits/s    frame=   30 fps= 18 q=31.0 size=     532kB time=1.50 bitrate=2903.1kbits/s    frame=   41 fps= 19 q=31.0 size=     568kB time=2.04 bitrate=2278.4kbits/s    frame=   47 fps= 17 q=31.0 size=     572kB time=2.33 bitrate=2006.9kbits/s    frame=   56 fps= 17 q=31.0 size=     604kB time=2.79 bitrate=1773.0kbits/s    frame=   67 fps= 18 q=31.0 size=     638kB time=3.33 bitrate=1568.4kbits/s    frame=   77 fps= 18 q=31.0 size=     671kB time=3.83 bitrate=1435.0kbits/s    frame=   87 fps= 18 q=31.0 size=     705kB time=4.33 bitrate=1332.1kbits/s    frame=   98 fps= 18 q=31.0 size=     741kB time=4.87 bitrate=1245.5kbits/s    frame=  110 fps= 19 q=31.0 size=     776kB time=5.50 bitrate=1156.6kbits/s    frame=  119 fps= 19 q=31.0 size=     793kB time=5.96 bitrate=1090.8kbits/s    frame=  130 fps= 19 q=31.0 size=     831kB time=6.50 bitrate=1046.8kbits/s    frame=  140 fps= 19 q=31.0 size=     865kB time=7.00 bitrate=1011.9kbits/s    frame=  150 fps= 19 q=31.0 size=     899kB time=7.50 bitrate= 982.5kbits/s    frame=  162 fps= 19 q=31.0 size=     935kB time=8.08 bitrate= 947.6kbits/s    frame=  173 fps= 19 q=27.9 size=     969kB time=8.62 bitrate= 920.5kbits/s    frame=  181 fps= 19 q=20.1 size=    1001kB time=9.04 bitrate= 907.3kbits/s    frame=  192 fps= 19 q=31.0 size=    1032kB time=9.58 bitrate= 881.8kbits/s    frame=  204 fps= 19 q=29.5 size=    1067kB time=10.21 bitrate= 856.0kbits/s    frame=  214 fps= 19 q=31.0 size=    1115kB time=10.71 bitrate= 852.7kbits/s    frame=  225 fps= 19 q=31.0 size=    1169kB time=11.25 bitrate= 851.1kbits/s    frame=  234 fps= 19 q=31.0 size=    1216kB time=11.71 bitrate= 850.7kbits/s    frame=  246 fps= 19 q=31.0 size=    1257kB time=12.29 bitrate= 837.6kbits/s    frame=  258 fps= 19 q=31.0 size=    1302kB time=12.88 bitrate= 828.2kbits/s    frame=  269 fps= 20 q=31.0 size=    1339kB time=13.46 bitrate= 815.0kbits/s    frame=  280 fps= 20 q=31.0 size=    1375kB time=14.00 bitrate= 804.8kbits/s    frame=  290 fps= 20 q=31.0 size=    1417kB time=14.50 bitrate= 800.4kbits/s    frame=  300 fps= 20 q=31.0 Lsize=    1431kB time=15.00 bitrate= 781.3kbits/s    video:1426kB audio:0kB global headers:0kB muxing overhead 0.343176%